<?xml version="1.0" standalone="no"?>
<!DOCTYPE svg PUBLIC "-//W3C//DTD SVG 1.1//EN" "http://www.w3.org/Graphics/SVG/1.1/DTD/svg11.dtd" >
<svg xmlns="http://www.w3.org/2000/svg">
<metadata>Generated by IcoMoon</metadata>
<defs>
<font id="icomoon" horiz-adv-x="1024">
<font-face units-per-em="1024" ascent="960" descent="-64" />
<missing-glyph horiz-adv-x="1024" />
<glyph unicode="&#x20;" horiz-adv-x="512" d="" />
<glyph unicode="&#xe900;" glyph-name="traceability" d="M277.333 832c23.552 0 42.667-19.115 42.667-42.667h106.88c21.888 0 39.893-16.469 42.368-37.675l0.299-4.992-0.043-192h85.12l0.043 192c0 23.552 19.115 42.667 42.667 42.667h106.667c0 23.552 19.115 42.667 42.667 42.667h85.333c23.552 0 42.667-19.115 42.667-42.667v-85.333c0-23.552-19.115-42.667-42.667-42.667h-85.333c-23.467 0-42.539 18.987-42.667 42.453-20.011 0-47.573 0.085-63.915-0.128-0.256-22.187-0.085-95.829-0.043-132.352v-16.64l4.949-0.299c21.205-2.432 37.675-20.48 37.675-42.368v-21.333h85.333c0 23.552 19.115 42.667 42.667 42.667h85.333c23.552 0 42.667-19.115 42.667-42.667v-85.333c0-23.552-19.115-42.667-42.667-42.667h-85.333c-23.552 0-42.667 19.115-42.667 42.667h-85.333v-21.333c0-23.552-19.115-42.667-42.667-42.667h-1.408v-20.693c-0.085-37.12-0.256-108.757 0-130.56 16.768-0.213 45.312-0.128 65.493-0.085l-0.085 2.005c0 23.552 19.115 42.667 42.667 42.667h85.333c23.552 0 42.667-19.115 42.667-42.667v-85.333c0-23.552-19.115-42.667-42.667-42.667h-85.333c-22.827 0-41.429 17.92-42.624 40.405h-108.203c-21.888 0-39.893 16.469-42.368 37.717l-0.299 4.949v194.261h-83.84v-194.261c0-23.552-19.115-42.667-42.667-42.667l-83.84 0.043-0.128-2.773c-2.475-21.205-20.48-37.675-42.411-37.675h-85.333c-23.552 0-42.667 19.115-42.667 42.667v85.333c0 23.552 19.115 42.667 42.667 42.667h85.333c23.595 0 42.667-19.115 42.667-42.667v-2.048h17.835c8.661 0 16.768 0.043 23.125 0.128 0.299 27.648 0 135.253 0 151.253h0.085c-23.552 0-42.667 19.115-42.667 42.667v21.333h-85.333c0-23.552-19.115-42.667-42.667-42.667h-85.333c-23.552 0-42.667 19.115-42.667 42.667v85.333c0 23.552 19.115 42.667 42.667 42.667h85.333c23.552 0 42.667-19.115 42.667-42.667h85.333v21.333c0 23.552 19.115 42.667 42.667 42.667l0.128-1.024v16.043c0.085 35.925 0.256 111.488 0 133.973-16.384 0.213-44.075 0.171-64.171 0.085 0.043-23.296-19.072-42.411-42.624-42.411h-85.333c-23.552 0-42.667 19.115-42.667 42.667v85.333c0 23.552 19.115 42.667 42.667 42.667h85.333z" />
<glyph unicode="&#xe901;" glyph-name="predecessor" d="M714.539 309.76h-405.333c-14.251 0-28.459-13.653-28.459-27.307v-109.227c0-13.653 14.208-27.307 28.459-27.307h405.333c14.208 0 28.416 13.653 28.416 27.307v109.227c0 13.653-14.208 27.307-28.416 27.307zM309.205 528.213c-14.251 0-28.459-13.653-28.459-27.307v-109.227c0-13.653 14.208-27.307 28.459-27.307h405.333c14.208 0 28.416 13.653 28.416 27.307v109.227c0 13.653-14.208 27.307-28.416 27.307h-405.333zM248.875 214.187v27.307h-106.667c-14.208 0-28.416 13.653-28.416 27.307v136.533c0 13.653 14.208 27.307 28.416 27.307h14.251v-13.653c0-6.827 0-6.827 7.083-13.653 7.125-6.827 7.125 0 14.251 0l56.875 34.133c7.125 0 7.125 6.827 7.125 13.653s0 6.827-7.125 13.653l-56.875 27.307h-14.251c0-6.827-7.083-6.827-7.083-13.653v-20.48h-14.251c-28.416 0-56.875-20.48-56.875-54.613v-136.533c0-27.307 28.459-54.613 56.875-54.613h106.667zM881.92 441.173c28.459 0 56.875 27.307 56.875 54.613v136.533c0 27.307-28.416 54.613-56.875 54.613h-14.208v20.48c0 6.827 0 6.827-7.125 13.653h-14.208l-56.917-40.96c-7.083 0-7.083-6.827-7.083-13.653s0-6.827 7.083-13.653l56.917-27.307h14.208c7.125 0 7.125 6.827 7.125 13.653v20.48h14.208c14.208 0 28.459-13.653 28.459-27.307v-136.533c0-13.653-14.251-27.307-28.459-27.307h-106.667v-27.307h106.667zM714.539 746.667c14.208 0 28.416-13.653 28.416-27.307v-109.227c0-13.653-14.208-27.307-28.416-27.307h-405.333c-14.251 0-28.459 13.653-28.459 27.307v109.227c0 13.653 14.208 27.307 28.459 27.307h405.333z" />
<glyph unicode="&#xe902;" glyph-name="successor" d="M714.539 309.76h-405.333c-14.251 0-28.459-13.653-28.459-27.307v-109.227c0-13.653 14.208-27.307 28.459-27.307h405.333c14.208 0 28.416 13.653 28.416 27.307v109.227c0 13.653-14.208 27.307-28.416 27.307zM309.205 528.213c-14.251 0-28.459-13.653-28.459-27.307v-109.227c0-13.653 14.208-27.307 28.459-27.307h405.333c14.208 0 28.416 13.653 28.416 27.307v109.227c0 13.653-14.208 27.307-28.416 27.307h-405.333zM248.875 459.947v-27.307h-106.667c-14.208 0-28.416-13.653-28.416-27.307v-136.533c0-13.653 14.208-27.307 28.416-27.307h14.251v13.653c0 6.827 0 6.827 7.083 13.653 7.125 6.827 7.125 0 14.251 0l56.875-34.133c7.125 0 7.125-6.827 7.125-13.653s0-6.827-7.125-13.653l-56.875-27.307h-14.251c0 6.827-7.083 6.827-7.083 13.653v20.48h-14.251c-28.416 0-56.875 20.48-56.875 54.613v136.533c0 27.307 28.459 54.613 56.875 54.613h106.667zM881.92 678.4c28.459 0 56.875-27.307 56.875-54.613v-136.533c0-27.307-28.416-54.613-56.875-54.613h-14.208v-20.48c0-6.827 0-6.827-7.125-13.653h-14.208l-56.917 40.96c-7.083 0-7.083 6.827-7.083 13.653s0 6.827 7.083 13.653l56.917 27.307h14.208c7.125 0 7.125-6.827 7.125-13.653v-20.48h14.208c14.208 0 28.459 13.653 28.459 27.307v136.533c0 13.653-14.251 27.307-28.459 27.307h-106.667v27.307h106.667zM714.539 746.667c14.208 0 28.416-13.653 28.416-27.307v-109.227c0-13.653-14.208-27.307-28.416-27.307h-405.333c-14.251 0-28.459 13.653-28.459 27.307v109.227c0 13.653 14.208 27.307 28.459 27.307h405.333z" />
<glyph unicode="&#xe903;" glyph-name="add-parent-card" d="M477.099 490.667v-49.835h-244.352c-19.285 0-34.944-14.933-34.944-33.408v-100.267h-34.901c-19.285 0-34.901-14.933-34.901-33.408v-133.675c0-18.432 15.616-33.408 34.901-33.408h139.648c19.285 0 34.901 14.933 34.901 33.408v133.675c0 18.432-15.616 33.408-34.901 33.408h-34.901v66.859h209.451v-66.859h-34.901c-19.285 0-34.944-14.933-34.944-33.408v-133.675c0-18.432 15.659-33.408 34.944-33.408h139.605c19.285 0 34.944 14.933 34.944 33.408v133.675c0 18.432-15.659 33.408-34.944 33.408h-34.901v66.859h209.493v-66.859h-34.944c-19.285 0-34.901-14.933-34.901-33.408v-133.675c0-18.432 15.616-33.408 34.901-33.408h139.648c19.285 0 34.901 14.933 34.901 33.408v133.675c0 18.432-15.616 33.408-34.901 33.408h-34.901v100.309c0 18.432-15.659 33.408-34.944 33.408h-244.352v49.792h-69.803zM198.4 241.067h69.973v-69.973h-69.973v69.973zM477.867 241.067h29.099c3.797-0.64 7.68-0.64 11.435 0h29.44v-69.973h-69.973v69.973zM755.2 241.067h69.973v-69.973h-69.973v69.973zM512 789.333c82.475 0 149.333-66.859 149.333-149.333s-66.859-149.333-149.333-149.333-149.333 66.859-149.333 149.333 66.859 149.333 149.333 149.333zM513.664 739.541c-14.677 0-26.539-11.861-26.539-26.539v-48.128h-48.128c-14.677 0-26.539-11.861-26.539-26.539s11.861-26.539 26.539-26.539h48.128v-44.8c0-14.677 11.861-26.539 26.539-26.539s26.539 11.861 26.539 26.539v44.8h44.8c14.677 0 26.539 11.861 26.539 26.539s-11.861 26.539-26.539 26.539h-44.8v48.128c0 14.677-11.861 26.539-26.539 26.539z" />
<glyph unicode="&#xe904;" glyph-name="set-context-to-this-card" d="M282.483 756.966c-38.594 0-70.621-32.026-70.621-70.621v-70.621h70.621v70.621h70.621v70.621h-70.621zM423.724 756.966v-70.621h70.621v70.621h-70.621zM564.966 756.966v-70.621h70.621v70.621h-70.621zM706.207 756.966v-70.621h70.621v-70.621h70.621v70.621c0 38.594-32.026 70.621-70.621 70.621h-70.621zM211.862 545.103v-70.621h70.621v70.621h-70.621zM776.828 545.103v-70.621h70.621v70.621h-70.621zM847.095 407.923l-70.621-0.353 0.353-74.47 70.621 0.282-0.353 74.54zM211.862 403.862v-70.621h70.621v70.621h-70.621zM211.862 262.621v-70.621c0-38.594 32.026-70.621 70.621-70.621h70.621v70.621h-70.621v70.621h-70.621zM776.828 262.621v-70.621h-70.621v-70.621h70.621c38.594 0 70.621 32.026 70.621 70.621v70.621h-70.621zM423.724 192v-70.621h70.621v70.621h-70.621zM564.966 192v-70.621h70.621v70.621h-70.621z" />
<glyph unicode="&#xe905;" glyph-name="broken-link" d="M270.848 661.333c-108.459 0-195.2-89.259-184.661-195.285 9.216-92.416 95.787-160.256 192.683-160.256h103.253c20.48 0 37.12 15.915 37.12 35.541s-16.64 35.541-37.12 35.541h-104.96c-60.288 0-114.261 43.307-117.419 100.992-3.371 61.525 47.659 112.341 111.104 112.341h111.317c20.48 0 37.12 15.957 37.12 35.584s-16.64 35.541-37.12 35.541h-111.36zM721.408 618.837c-9.344-1.195-18.261-5.76-24.491-13.483-12.587-15.659-9.515-38.187 6.955-50.133 27.563-19.925 66.304-48.043 80.299-58.411 48.64-36.011 57.515-102.955 19.925-149.589-37.547-46.592-107.435-55.168-156.075-19.157-14.080 10.453-53.248 38.827-80.853 58.837-16.213 11.733-39.253 8.789-51.669-6.613-12.629-15.659-9.515-38.101 6.955-50.048 27.904-20.267 67.2-48.768 80.213-58.453 81.024-60.032 197.547-45.696 260.224 32 62.635 77.653 47.659 189.227-33.365 249.301-13.056 9.643-52.907 38.571-80.853 58.88-8.107 5.845-17.92 8.064-27.264 6.827zM345.088 519.125c-20.48 0-37.12-15.957-37.12-35.584s16.64-35.541 37.12-35.541h259.669c20.48 0 37.12 15.915 37.12 35.541s-16.64 35.584-37.12 35.584h-259.712z" />
<glyph unicode="&#xe906;" glyph-name="add-child-card" d="M399.531 746.667c-19.285 0-34.944-14.848-34.944-33.195v-132.693c0-18.347 15.659-33.237 34.944-33.237h34.901v-66.347h-244.352c-19.285 0-34.944-14.848-34.944-33.195v-99.541h-34.901c-19.285 0-34.901-14.891-34.901-33.195v-132.736c0-18.347 15.616-33.195 34.901-33.195h139.648c19.285 0 34.901 14.848 34.901 33.195v132.693c0 18.347-15.616 33.237-34.901 33.237h-34.901v66.347h209.451v-66.347h-34.901c-19.285 0-34.944-14.891-34.944-33.195v-132.736c0-18.347 15.659-33.195 34.944-33.195h139.605c19.285 0 34.944 14.848 34.944 33.195v132.693c0 18.347-15.659 33.237-34.944 33.237h-34.901v66.347h169.045s7.339 8.533 18.731 17.109c7.253 5.461 16.64 10.752 25.045 14.677 8.107 3.755 18.304 7.851 28.416 10.88 16.981 5.077 33.28 5.589 33.067 5.888-6.101 9.643-17.237 17.835-29.952 17.835h-244.352v66.347h34.901c19.285 0 34.944 14.891 34.944 33.195v132.736c0 18.347-15.659 33.195-34.944 33.195h-139.605zM434.432 680.277h69.803v-66.304h-29.525c-1.963 0.299-3.925 0.427-5.931 0.427-1.707 0-3.371-0.171-5.035-0.427h-29.312v66.304zM155.136 282.069h69.845v-66.347h-69.845v66.304zM434.432 282.069h29.013c3.797-0.597 7.68-0.597 11.392 0h29.44v-66.347h-69.888v66.304zM789.333 448c82.475 0 149.333-66.859 149.333-149.333s-66.859-149.333-149.333-149.333-149.333 66.859-149.333 149.333 66.859 149.333 149.333 149.333zM790.997 398.208c-14.677 0-26.539-11.861-26.539-26.539v-48.128h-48.128c-14.677 0-26.539-11.861-26.539-26.539s11.861-26.539 26.539-26.539h48.128v-44.8c0-14.677 11.861-26.539 26.539-26.539s26.539 11.861 26.539 26.539v44.8h44.8c14.677 0 26.539 11.861 26.539 26.539s-11.861 26.539-26.539 26.539h-44.8v48.128c0 14.677-11.861 26.539-26.539 26.539z" />
<glyph unicode="&#xe907;" glyph-name="filter" horiz-adv-x="805" d="M801.719 791.442c5.705-13.714 2.853-29.696-8.009-40.009l-281.71-281.71v-424.009c0-14.848-9.143-28.014-22.272-33.719-4.571-1.719-9.728-2.853-14.299-2.853-9.728 0-18.871 3.438-25.71 10.862l-146.286 146.286c-6.839 6.839-10.862 16.018-10.862 25.71v277.723l-281.71 281.71c-10.862 10.277-13.714 26.295-8.009 40.009 5.705 13.129 18.871 22.272 33.719 22.272h731.429c14.848 0 28.014-9.143 33.719-22.272z" />
<glyph unicode="&#xe908;" glyph-name="triangle" d="M169.212-55.042l749.554 449.732c40.244 24.148 40.244 82.474 0 106.622l-749.554 449.73c-41.44 24.866-94.16-4.986-94.16-53.31v-899.464c0-48.326 52.72-78.178 94.16-53.31z" />
<glyph unicode="&#xe909;" glyph-name="ListView-tm" d="M1022.88 803.904c-5.6-23.744-26.4-41.632-56.064-41.632 0 0-650.976 0-650.976 0-17.92 0-39.52 6.304-49.664 21.6-6.112 9.248-7.040 20.768-7.008 31.744 0 10.496 0.832 21.44 6.336 30.464 9.632 15.84 31.968 24.416 50.368 24.416 0 0 650.976 0 650.976 0 23.072 0 45.76-9.568 53.728-31.968 4.288-12 4.864-23.936 2.336-34.656zM117.536 818.464c0-31.040-26.048-56.192-58.208-56.192s-58.208 25.152-58.208 56.192c0 31.040 26.048 56.192 58.208 56.192s58.208-25.152 58.208-56.192zM1022.112 433.44c-5.6-23.744-26.4-41.632-56.064-41.632 0 0-650.976 0-650.976 0-17.92 0-39.52 6.304-49.664 21.6-6.112 9.248-7.040 20.768-7.008 31.744 0 10.496 0.832 21.44 6.336 30.464 9.632 15.84 31.968 24.416 50.368 24.416 0 0 650.976 0 650.976 0 23.072 0 45.76-9.568 53.728-31.968 4.288-12 4.864-23.936 2.336-34.656zM116.768 448c0-31.040-26.048-56.192-58.208-56.192s-58.208 25.152-58.208 56.192c0 31.040 26.048 56.192 58.208 56.192s58.208-25.152 58.208-56.192zM1022.112 62.944c-5.6-23.744-26.4-41.632-56.064-41.632 0 0-650.976 0-650.976 0-17.92 0-39.52 6.304-49.664 21.6-6.112 9.248-7.040 20.768-7.008 31.744 0 10.496 0.832 21.44 6.336 30.464 9.632 15.84 31.968 24.416 50.368 24.416 0 0 650.976 0 650.976 0 23.072 0 45.76-9.568 53.728-31.968 4.288-12 4.864-23.936 2.336-34.656zM116.768 77.536c0-31.040-26.048-56.192-58.208-56.192s-58.208 25.152-58.208 56.192c0 31.040 26.048 56.192 58.208 56.192s58.208-25.152 58.208-56.192z" />
<glyph unicode="&#xe90a;" glyph-name="collapse" d="M768 448l-512-512v1024l512-512z" />
<glyph unicode="&#xe90b;" glyph-name="expand" d="M1024 704l-512-512-512 512z" />
<glyph unicode="&#xe90c;" glyph-name="info" d="M512 960c-282.778 0-512-229.222-512-512s229.222-512 512-512c282.778 0 512 229.222 512 512s-229.222 512-512 512zM512 192v0c-28.262 0-51.2 22.938-51.2 51.2v204.8c0 28.262 22.938 51.2 51.2 51.2v0c28.262 0 51.2-22.938 51.2-51.2v-204.8c0-28.262-22.938-51.2-51.2-51.2zM537.6 601.6h-51.2c-14.131 0-25.6 11.469-25.6 25.6v51.2c0 14.131 11.469 25.6 25.6 25.6h51.2c14.131 0 25.6-11.469 25.6-25.6v-51.2c0-14.131-11.469-25.6-25.6-25.6z" />
<glyph unicode="&#xe90d;" glyph-name="Success" d="M496.998 258.202c-9.984-9.984-23.091-15.002-36.198-15.002s-26.214 5.018-36.198 15.002l-204.8 204.8c-20.019 20.019-20.019 52.378 0 72.397s52.378 20.019 72.397 0l168.602-168.602 427.52 427.52c-93.542 101.632-227.277 165.683-376.32 165.683-282.778 0-512-229.222-512-512s229.222-512 512-512c282.778 0 512 229.222 512 512 0 96.512-27.187 186.47-73.626 263.578l-453.376-453.376z" />
<glyph unicode="&#xe90e;" glyph-name="Error1" d="M1012.254 117.709l-429.812 749.312c-15 26.163-41.335 41.779-70.455 41.779s-55.455-15.616-70.406-41.728l-429.861-749.363c-15.244-26.573-15.635-59.802-1.075-86.784 14.511-26.982 41.921-43.725 71.529-43.725h859.673c29.56 0 57.018 16.742 71.529 43.725 14.56 26.982 14.12 60.211-1.124 86.784zM536.417 140.8h-48.859c-13.485 0-24.429 11.469-24.429 25.6v51.2c0 14.131 10.944 25.6 24.429 25.6h48.859c13.485 0 24.429-11.469 24.429-25.6v-51.2c0-14.131-10.944-25.6-24.429-25.6zM511.987 345.6v0c-26.97 0-48.859 22.938-48.859 51.2v153.6c0 28.262 21.889 51.2 48.859 51.2v0c26.97 0 48.859-22.938 48.859-51.2v-153.6c0-28.262-21.889-51.2-48.859-51.2z" />
<glyph unicode="&#xe90f;" glyph-name="Plus" d="M512 832c211.734 0 384-172.249 384-384s-172.266-384-384-384c-211.734 0-384 172.249-384 384s172.266 384 384 384zM512 704c-35.346 0-64-28.654-64-64v0-128h-128c-32.821 0-59.872-24.707-63.569-56.536l-0.431-7.464c0-35.346 28.654-64 64-64v0h128v-128c0-32.821 24.707-59.872 56.536-63.569l7.464-0.431c35.346 0 64 28.654 64 64v0 128h128c32.821 0 59.872 24.707 63.569 56.536l0.431 7.464c0 35.346-28.654 64-64 64v0h-128v128c0 32.821-24.707 59.872-56.536 63.569z" />
<glyph unicode="&#xe910;" glyph-name="Minus" d="M512 832c211.734 0 384-172.249 384-384s-172.266-384-384-384c-211.734 0-384 172.249-384 384s172.266 384 384 384zM704 512h-384c-35.346 0-64-28.654-64-64s28.654-64 64-64v0h384c35.346 0 64 28.654 64 64s-28.654 64-64 64v0z" />
<glyph unicode="&#xe911;" glyph-name="less-than-icon-1" horiz-adv-x="931" d="M217.228 820.364c-68.096 0-124.137-56.041-124.137-124.137v-496.454c0-68.096 56.041-124.137 124.137-124.137h496.454c68.096 0 124.137 56.041 124.137 124.137v496.454c0 68.096-56.041 124.137-124.137 124.137h-496.454zM217.228 737.606h496.454c23.412 0 41.425-17.967 41.425-41.379v-496.454c0-23.412-18.013-41.425-41.425-41.425h-496.454c-23.412 0-41.425 18.013-41.425 41.425v496.454c0 23.412 18.013 41.425 41.425 41.425zM591.919 655.22c-1.489 0-2.979 0-4.422-0.093-6.516-0.465-12.847-2.327-18.432-5.679l-289.652-165.469c-12.893-7.401-20.899-21.085-20.899-35.98s8.006-28.579 20.945-35.98l289.606-165.469c12.847-7.354 28.625-7.261 41.425 0.186 12.753 7.447 20.573 21.178 20.48 35.98-0.047 14.801-8.006 28.393-20.852 35.747l-226.676 129.536 226.676 129.536c16.291 8.937 24.669 27.648 20.433 45.754s-20.015 31.185-38.633 31.884z" />
<glyph unicode="&#xe912;" glyph-name="icons-8-equals-1" horiz-adv-x="931" d="M217.228 820.364c-68.096 0-124.137-56.041-124.137-124.137v-496.454c0-68.096 56.041-124.137 124.137-124.137h496.454c68.096 0 124.137 56.041 124.137 124.137v496.454c0 68.096-56.041 124.137-124.137 124.137h-496.454zM217.228 737.606h496.454c23.412 0 41.425-17.967 41.425-41.379v-496.454c0-23.412-18.013-41.425-41.425-41.425h-496.454c-23.412 0-41.425 18.013-41.425 41.425v496.454c0 23.412 18.013 41.425 41.425 41.425zM299.939 572.137c-14.895 0.186-28.765-7.633-36.305-20.527s-7.54-28.858 0-41.705c7.54-12.893 21.411-20.759 36.305-20.527h331.031c14.895-0.233 28.765 7.633 36.305 20.48 7.54 12.94 7.54 28.858 0 41.751s-21.411 20.713-36.305 20.48h-331.031zM299.939 406.621c-14.895 0.233-28.765-7.633-36.305-20.48-7.54-12.94-7.54-28.858 0-41.751s21.411-20.713 36.305-20.48h331.031c14.895-0.233 28.765 7.587 36.305 20.48s7.54 28.858 0 41.705c-7.54 12.893-21.411 20.759-36.305 20.527h-331.031z" />
<glyph unicode="&#xe913;" glyph-name="greater-than-icon-1" horiz-adv-x="931" d="M217.228 820.364c-68.096 0-124.137-56.041-124.137-124.137v-496.454c0-68.096 56.041-124.137 124.137-124.137h496.454c68.096 0 124.137 56.041 124.137 124.137v496.454c0 68.096-56.041 124.137-124.137 124.137h-496.454zM217.228 737.606h496.454c23.412 0 41.425-17.967 41.425-41.379v-496.454c0-23.412-18.013-41.425-41.425-41.425h-496.454c-23.412 0-41.425 18.013-41.425 41.425v496.454c0 23.412 18.013 41.425 41.425 41.425zM342.202 655.22c-1.396 0-2.746 0-4.096-0.093-18.385-1.164-33.792-14.336-37.795-32.303s4.375-36.445 20.48-45.289l226.676-129.536-226.676-129.536c-12.847-7.308-20.806-20.945-20.852-35.747-0.093-14.801 7.727-28.532 20.48-35.98 12.8-7.447 28.579-7.54 41.425-0.186l289.652 165.469c12.893 7.401 20.899 21.085 20.899 35.98s-8.006 28.579-20.945 35.98l-289.559 165.469c-5.958 3.537-12.707 5.492-19.642 5.725z" />
<glyph unicode="&#xe914;" glyph-name="Close" d="M595.648 448l367.072 367.072c20.256 20.288 20.256 53.12 0 73.408s-53.12 20.288-73.408 0l-367.072-367.072-367.072 367.072c-20.288 20.288-53.12 20.288-73.408 0s-20.288-53.12 0-73.408l367.072-367.072-367.072-367.072c-20.288-20.288-20.288-53.12 0-73.408s53.12-20.256 73.408 0l367.072 367.072 367.072-367.072c20.288-20.256 53.12-20.256 73.408 0s20.256 53.12 0 73.408l-367.072 367.072z" />
<glyph unicode="&#xe915;" glyph-name="Search" d="M358.401 960.706c-197.333 0-358.401-161.068-358.401-358.401s161.068-358.401 358.401-358.401c89.498 0 171.265 33.381 234.201 88l21.8-21.8v-66.2l286.001-286.001c28.262-28.262 74.138-28.262 102.4 0s28.262 74.138 0 102.4l-286.001 286.001h-66.2l-21.8 21.8c54.619 62.936 88 144.703 88 234.201 0 197.333-161.068 358.401-358.401 358.401zM358.4 858.306c141.991 0 256-114.009 256-256s-114.009-256-256-256c-141.991 0-256 114.009-256 256s114.009 256 256 256z" />
<glyph unicode="&#xe916;" glyph-name="add" d="M512 874.667c-235.648 0-426.667-191.019-426.667-426.667s191.019-426.667 426.667-426.667 426.667 191.019 426.667 426.667-191.019 426.667-426.667 426.667zM640 405.333h-85.333v-85.333c0-23.552-19.115-42.667-42.667-42.667v0c-23.552 0-42.667 19.115-42.667 42.667v85.333h-85.333c-23.552 0-42.667 19.115-42.667 42.667v0c0 23.552 19.115 42.667 42.667 42.667h85.333v85.333c0 23.552 19.115 42.667 42.667 42.667v0c23.552 0 42.667-19.115 42.667-42.667v-85.333h85.333c23.552 0 42.667-19.115 42.667-42.667v0c0-23.552-19.115-42.667-42.667-42.667z" />
<glyph unicode="&#xe917;" glyph-name="right-arrow1" d="M334.45 98.819c13.95-14.438 37.168-14.438 51.606 0 13.95 13.95 13.95 37.168 0 51.086l-261.674 261.674h863.49c20.129 0.033 36.128 16.032 36.128 36.16s-15.999 36.648-36.128 36.648h-863.49l261.674 261.187c13.95 14.438 13.95 37.689 0 51.606-14.438 14.438-37.689 14.438-51.606 0l-323.622-323.622c-14.438-13.95-14.438-37.168 0-51.086l323.622-323.654z" />
<glyph unicode="&#xe918;" glyph-name="add-parent_node" d="M341.333 960c-23.552 0-42.667-19.115-42.667-42.667v-42.667h-42.667c-23.552 0-42.667-19.115-42.667-42.667s19.115-42.667 42.667-42.667h42.667v-42.667c0-23.552 19.115-42.667 42.667-42.667s42.667 19.115 42.667 42.667v42.667h42.667c23.552 0 42.667 19.115 42.667 42.667s-19.115 42.667-42.667 42.667h-42.667v42.667c0 23.552-19.115 42.667-42.667 42.667zM340.667 661.917c-23.278-0.375-42.004-19.334-42.004-42.666 0-0.205 0.001-0.411 0.004-0.615v0.031-78.167c-0.363-2.092-0.571-4.501-0.571-6.958s0.208-4.866 0.607-7.21l-0.035 0.252v-242.083c-0.363-2.092-0.571-4.501-0.571-6.958s0.208-4.866 0.607-7.21l-0.035 0.252v-249.25c0.002-23.563 19.103-42.664 42.666-42.667h256c0-23.552 19.115-42.667 42.667-42.667h85.333c23.552 0 42.667 19.115 42.667 42.667v85.333c0 23.552-19.115 42.667-42.667 42.667h-85.333c-23.552 0-42.667-19.115-42.667-42.667h-213.333v170.667h213.333c0-23.552 19.115-42.667 42.667-42.667h85.333c23.552 0 42.667 19.115 42.667 42.667v85.333c0 23.552-19.115 42.667-42.667 42.667h-85.333c-23.552 0-42.667-19.115-42.667-42.667h-213.333v170.667h213.333c0-23.552 19.115-42.667 42.667-42.667h85.333c23.552 0 42.667 19.115 42.667 42.667v85.333c0 23.552-19.115 42.667-42.667 42.667h-85.333c-23.552 0-42.667-19.115-42.667-42.667h-213.333v42.667c0.003 0.174 0.004 0.379 0.004 0.584 0 23.567-19.104 42.671-42.671 42.671-0.234 0-0.468-0.002-0.702-0.006h0.035z" />
<glyph unicode="&#xe919;" glyph-name="add-child_subnode" d="M298.667 874.667c-23.552 0-42.667-19.115-42.667-42.667v-85.333c0-23.552 19.115-42.667 42.667-42.667v-120.833c-0.363-2.092-0.571-4.501-0.571-6.958s0.208-4.866 0.607-7.21l-0.035 0.252v-242.083c-0.363-2.092-0.571-4.501-0.571-6.958s0.208-4.866 0.607-7.21l-0.035 0.252v-249.25c0.002-23.563 19.103-42.664 42.666-42.667h256c0-23.552 19.115-42.667 42.667-42.667h85.333c23.552 0 42.667 19.115 42.667 42.667v85.333c0 23.552-19.115 42.667-42.667 42.667h-85.333c-23.552 0-42.667-19.115-42.667-42.667h-213.333v170.667h213.333c0-23.552 19.115-42.667 42.667-42.667h85.333c23.552 0 42.667 19.115 42.667 42.667v85.333c0 23.552-19.115 42.667-42.667 42.667h-85.333c-23.552 0-42.667-19.115-42.667-42.667h-213.333v170.667h85.333c0.179-0.003 0.391-0.004 0.603-0.004 23.567 0 42.671 19.104 42.671 42.671s-19.104 42.671-42.671 42.671c-0.212 0-0.424-0.002-0.635-0.005h-85.301v85.333c23.552 0 42.667 19.115 42.667 42.667v85.333c0 23.552-19.115 42.667-42.667 42.667h-85.333zM682.667 704c-23.552 0-42.667-19.115-42.667-42.667v-42.667h-42.667c-23.552 0-42.667-19.115-42.667-42.667s19.115-42.667 42.667-42.667h42.667v-42.667c0-23.552 19.115-42.667 42.667-42.667s42.667 19.115 42.667 42.667v42.667h42.667c23.552 0 42.667 19.115 42.667 42.667s-19.115 42.667-42.667 42.667h-42.667v42.667c0 23.552-19.115 42.667-42.667 42.667z" />
<glyph unicode="&#xe91a;" glyph-name="icons-minus-eb" d="M512 960c-282.304 0-512-229.696-512-512s229.696-512 512-512c282.304 0 512 229.696 512 512s-229.696 512-512 512zM512 881.216c239.68 0 433.216-193.536 433.216-433.216s-193.536-433.216-433.216-433.216c-239.68 0-433.216 193.536-433.216 433.216s193.536 433.216 433.216 433.216zM275.68 487.392v-78.784h472.608v78.784h-472.608z" />
<glyph unicode="&#xe91b;" glyph-name="icons-plus-eb" d="M512 960c-282.304 0-512-229.696-512-512s229.696-512 512-512c282.304 0 512 229.696 512 512s-229.696 512-512 512zM512 881.216c239.68 0 433.216-193.536 433.216-433.216s-193.536-433.216-433.216-433.216c-239.68 0-433.216 193.536-433.216 433.216s193.536 433.216 433.216 433.216zM472.608 684.32v-196.928h-196.928v-78.784h196.928v-196.928h78.784v196.928h196.928v78.784h-196.928v196.928h-78.784z" />
<glyph unicode="&#xe91c;" glyph-name="Search-Add" d="M384 874.667c-164.444 0-298.667-134.223-298.667-298.667s134.223-298.667 298.667-298.667c74.581 0 142.72 27.818 195.167 73.333l18.167-18.167v-55.167l238.333-238.333c23.552-23.552 61.781-23.552 85.333 0s23.552 61.781 0 85.333l-238.333 238.333h-55.167l-18.167 18.167c45.516 52.446 73.333 120.585 73.333 195.167 0 164.444-134.223 298.667-298.667 298.667zM384 789.333c118.326 0 213.333-95.007 213.333-213.333s-95.007-213.333-213.333-213.333c-118.326 0-213.333 95.007-213.333 213.333s95.007 213.333 213.333 213.333zM383.333 704.583c-23.278-0.375-42.004-19.334-42.004-42.666 0-0.205 0.001-0.411 0.004-0.615v0.031-42.667h-42.667c-0.179 0.003-0.391 0.004-0.603 0.004-23.567 0-42.671-19.104-42.671-42.671s19.104-42.671 42.671-42.671c0.212 0 0.424 0.002 0.635 0.005h42.635v-42.667c-0.003-0.179-0.004-0.391-0.004-0.603 0-23.567 19.104-42.671 42.671-42.671s42.671 19.104 42.671 42.671c0 0.212-0.002 0.424-0.005 0.635v-0.032 42.667h42.667c0.179-0.003 0.391-0.004 0.603-0.004 23.567 0 42.671 19.104 42.671 42.671s-19.104 42.671-42.671 42.671c-0.212 0-0.424-0.002-0.635-0.005h-42.635v42.667c0.003 0.174 0.004 0.379 0.004 0.584 0 23.567-19.104 42.671-42.671 42.671-0.234 0-0.468-0.002-0.702-0.006h0.035z" />
<glyph unicode="&#xe91d;" glyph-name="clear-filter" d="M499.763 430.234c-24.627-39.373-38.963-85.914-38.963-135.834 0-103.168 61.030-192.102 148.992-232.602v-5.581c0-7.117-3.277-12.595-8.192-16.128-2.15-1.229-3.584-1.536-5.325-1.638h-5.222c-1.536 0-3.072 0.102-4.25 0.614l-1.536 1.024-162.867 106.854c-3.942 2.816-6.758 6.912-7.782 12.083l-0.358 4.045v267.11l85.504 0.051zM861.594 439.194c79.872-79.872 79.872-209.766 0-289.587-79.872-79.872-209.766-79.872-289.587 0-79.872 79.872-79.872 209.766 0 289.587 79.872 79.872 209.766 79.872 289.587 0zM769.28 394.547l-4.198-3.584-48.333-48.282-48.23 48.282c-12.083 12.083-31.078 13.21-44.442 3.277l-3.84-3.277c-11.981-12.032-13.158-30.72-3.584-44.032l3.584-4.25 48.282-48.282-48.282-48.282c-12.083-12.083-13.21-31.078-3.277-44.442l3.277-3.84c12.032-11.981 30.72-13.158 44.032-3.584l4.25 3.584 48.23 48.282 48.333-48.282c12.083-12.083 31.078-13.21 44.442-3.277l3.84 3.277c11.981 12.032 13.158 30.72 3.584 44.032l-3.584 4.25-48.333 48.282 48.333 48.282c12.083 12.083 13.21 31.078 3.277 44.442l-3.277 3.84c-12.032 11.981-30.72 13.158-44.032 3.584zM854.118 857.6c8.55 0 14.592-5.427 15.974-13.978l0.307-3.84v-53.35c0-4.045-1.024-6.912-2.918-9.626l-2.15-2.611-196.608-228.25c-55.91-10.65-105.421-39.424-142.029-80.077h-96.154c-2.406 0-5.683 1.126-8.55 3.174l-2.662 2.406-260.608 302.694c-2.458 2.662-4.096 5.171-4.762 8.55l-0.358 3.686v53.402c0 9.37 4.966 15.974 12.8 17.51l3.482 0.307h684.237z" />
<glyph unicode="&#xe91e;" glyph-name="filter-selected" d="M414.208 220.262l5.376-6.656 5.99-6.349 146.995-141.926c10.035-9.728 21.146-16.794 32.922-21.555l-1.178-1.331-2.714-2.355c-2.15-1.229-3.584-1.536-5.325-1.638h-5.222c-1.536 0-3.072 0.102-4.25 0.614l-1.536 1.024-162.867 106.854c-3.942 2.816-6.758 6.912-7.782 12.083l-0.358 4.045v57.19zM857.242 435.456l0.512-0.41c16.896-16.742 16.896-43.315 0-59.597l-228.864-222.106c-17.408-16.742-45.875-16.742-63.232 0l-92.16 89.6c-16.896 16.742-16.896 43.315 0 59.597l0.461 0.41c17.357 16.742 45.363 16.742 62.31 0l60.979-58.726 197.222 191.232c17.408 16.742 45.414 16.742 62.771 0zM609.741 430.182v-116.019l-1.178 1.075-40.704 39.322c-40.704 39.322-105.472 38.195-144.794-2.509-3.226-3.379-6.195-6.861-8.909-10.547l0.102 88.678h195.482zM854.118 857.6c8.55 0 14.592-5.427 15.974-13.978l0.307-3.84v-53.35c0-4.045-1.024-6.912-2.918-9.626l-2.15-2.611-260.659-302.746c-2.458-2.662-4.762-4.506-7.834-5.222l-3.379-0.358h-162.918c-2.406 0-5.683 1.126-8.55 3.174l-2.662 2.406-260.608 302.694c-2.458 2.662-4.096 5.171-4.762 8.55l-0.358 3.686v53.402c0 9.37 4.966 15.974 12.8 17.51l3.482 0.307h684.237z" />
<glyph unicode="&#xe91f;" glyph-name="Error" d="M512 21.333c235.648 0 426.667 191.019 426.667 426.667s-191.019 426.667-426.667 426.667c-235.648 0-426.667-191.019-426.667-426.667s191.019-426.667 426.667-426.667zM512 661.333v0c23.552 0 42.667-19.115 42.667-42.667v-170.667c0-23.552-19.115-42.667-42.667-42.667v0c-23.552 0-42.667 19.115-42.667 42.667v170.667c0 23.552 19.115 42.667 42.667 42.667zM490.667 320h42.667c11.776 0 21.333-9.557 21.333-21.333v-42.667c0-11.776-9.557-21.333-21.333-21.333h-42.667c-11.776 0-21.333 9.557-21.333 21.333v42.667c0 11.776 9.557 21.333 21.333 21.333z" />
<glyph unicode="&#xe920;" glyph-name="sbblox" d="M170.667 874.667c-46.635 0-85.333-38.699-85.333-85.333v-341.333c0-46.635 38.699-85.333 85.333-85.333h128c23.564 0 42.667 19.103 42.667 42.667s-19.103 42.667-42.667 42.667v0h-128v170.667h376.832c2.091-0.363 4.498-0.571 6.955-0.571s4.864 0.208 7.207 0.606l-0.252-0.035h35.925v170.667c0 46.635-38.699 85.333-85.333 85.333h-341.333zM170.667 789.333h341.333v-85.333h-341.333v85.333zM512 533.333c-47.128 0-85.333-38.205-85.333-85.333v0-341.333c0-46.635 38.699-85.333 85.333-85.333h341.333c46.635 0 85.333 38.699 85.333 85.333v341.333c0 47.128-38.205 85.333-85.333 85.333v0h-341.333zM512 362.667h341.333v-256h-341.333v256z" />
<glyph unicode="&#xe921;" glyph-name="Menu" horiz-adv-x="307" d="M97.011 954.611c-29.642 0-56.589-24.253-56.589-56.589v-113.179c0-32.337 24.253-56.589 56.589-56.589h113.179c29.642 0 56.589 24.253 56.589 56.589v113.179c0 32.337-24.253 56.589-56.589 56.589h-113.179zM97.011 561.179c-29.642 0-56.589-24.253-56.589-56.589v-113.179c0-32.337 24.253-56.589 56.589-56.589h113.179c29.642 0 56.589 24.253 56.589 56.589v113.179c0 29.642-24.253 56.589-56.589 56.589h-113.179zM97.011 167.747c-29.642 0-56.589-24.253-56.589-56.589v-113.179c0-32.337 24.253-56.589 56.589-56.589h113.179c29.642 0 56.589 24.253 56.589 56.589v113.179c0 32.337-24.253 56.589-56.589 56.589h-113.179z" />
<glyph unicode="&#xe922;" glyph-name="fieldsegment" d="M162.901 789.333c-42.411 0-77.568-34.389-77.568-75.861v-530.944c0-41.472 35.157-75.861 77.568-75.861h38.827c0.131-0.002 0.286-0.002 0.441-0.002 10.59 0 20.208 4.162 27.308 10.94l-0.015-0.015c7.078 6.844 11.493 16.404 11.563 26.995v0.013c0 0.027 0 0.059 0 0.091 0 10.58-4.416 20.129-11.506 26.903l-0.014 0.013c-6.979 6.763-16.506 10.931-27.006 10.931-0.286 0-0.57-0.003-0.855-0.009l0.042 0.001h-38.784v530.944h38.827c0.126-0.001 0.275-0.002 0.424-0.002 10.595 0 20.219 4.162 27.325 10.94l-0.016-0.015c7.078 6.844 11.493 16.404 11.563 26.995v0.013c0 0.027 0 0.059 0 0.091 0 10.58-4.416 20.129-11.506 26.903l-0.014 0.013c-6.985 6.763-16.518 10.932-27.024 10.932-0.294 0-0.588-0.003-0.881-0.010l0.044 0.001h-38.784zM822.315 789.333c-0.144 0.002-0.313 0.003-0.483 0.003-10.59 0-20.209-4.162-27.308-10.94l0.015 0.015c-7.070-6.849-11.483-16.406-11.563-26.993v-0.015c0-0.027 0-0.059 0-0.091 0-10.58 4.416-20.129 11.506-26.903l0.014-0.013c6.991-6.763 16.529-10.93 27.040-10.93 0.274 0 0.547 0.003 0.819 0.008l-0.041-0.001h38.784v-530.944h-38.827c-0.141 0.002-0.308 0.003-0.475 0.003-10.579 0-20.187-4.163-27.273-10.94l0.015 0.014c-7.070-6.849-11.483-16.406-11.563-26.993v-0.015c0-0.027 0-0.059 0-0.091 0-10.58 4.416-20.129 11.506-26.903l0.014-0.013c6.985-6.763 16.517-10.931 27.023-10.931 0.28 0 0.559 0.003 0.837 0.009l-0.042-0.001h38.784c42.411 0 77.568 34.389 77.568 75.861v530.944c0 41.472-35.2 75.861-77.568 75.861h-38.827zM321.92 485.931c-0.116 0.001-0.253 0.002-0.391 0.002-10.606 0-20.24-4.161-27.359-10.94l0.016 0.015c-7.094-6.839-11.524-16.398-11.605-26.993v-0.015c0-0.015 0-0.033 0-0.051 0-10.601 4.434-20.166 11.548-26.943l0.015-0.014c6.997-6.762 16.54-10.929 27.056-10.929 0.253 0 0.506 0.002 0.757 0.007l-0.038-0.001h93.099c0.146-0.002 0.319-0.003 0.492-0.003 10.601 0 20.23 4.162 27.343 10.941l-0.016-0.015c7.054 6.855 11.452 16.411 11.52 26.995v0.013c0 0.027 0 0.059 0 0.091 0 10.58-4.416 20.129-11.506 26.903l-0.014 0.013c-6.997 6.763-16.541 10.93-27.057 10.93-0.268 0-0.535-0.003-0.801-0.008l0.040 0.001h-93.099zM306.944 653.867c4.283 1.73 9.249 2.734 14.45 2.734 0.185 0 0.369-0.001 0.554-0.004h93.071c0.156 0.002 0.341 0.003 0.525 0.003 10.591 0 20.209-4.162 27.309-10.941l-0.015 0.015c7.054-6.855 11.452-16.411 11.52-26.995v-0.013c0-0.027 0-0.059 0-0.091 0-10.58-4.416-20.129-11.506-26.903l-0.014-0.013c-6.991-6.763-16.529-10.93-27.040-10.93-0.274 0-0.547 0.003-0.819 0.008l0.041-0.001h-93.099c-0.126-0.001-0.275-0.002-0.424-0.002-10.595 0-20.219 4.162-27.325 10.94l0.016-0.015c-7.109 6.833-11.554 16.392-11.648 26.991v0.017c0 0.015 0 0.033 0 0.051 0 10.601 4.434 20.166 11.548 26.943l0.015 0.014c3.578 3.446 7.831 6.22 12.538 8.1l0.262 0.092zM306.944 312.533c4.29 1.73 9.265 2.734 14.474 2.734 0.177 0 0.353-0.001 0.529-0.003h93.072c0.146 0.002 0.319 0.003 0.492 0.003 10.601 0 20.23-4.162 27.343-10.941l-0.016 0.015c7.054-6.855 11.452-16.411 11.52-26.995v-0.013c0-0.027 0-0.059 0-0.091 0-10.58-4.416-20.129-11.506-26.903l-0.014-0.013c-6.997-6.763-16.541-10.93-27.057-10.93-0.268 0-0.535 0.003-0.801 0.008l0.040-0.001h-93.099c-0.131-0.002-0.286-0.002-0.441-0.002-10.59 0-20.208 4.162-27.308 10.94l0.015-0.015c-7.094 6.839-11.524 16.398-11.605 26.993v0.015c0 0.015 0 0.033 0 0.051 0 10.601 4.434 20.166 11.548 26.943l0.015 0.014c3.579 3.444 7.832 6.217 12.537 8.099l0.263 0.093zM562.944 653.867c4.283 1.73 9.249 2.734 14.45 2.734 0.185 0 0.369-0.001 0.554-0.004h135.737c0.144 0.002 0.313 0.003 0.483 0.003 10.59 0 20.209-4.162 27.308-10.94l-0.015 0.015c7.070-6.849 11.483-16.406 11.563-26.993v-0.015c0-0.027 0-0.059 0-0.091 0-10.58-4.416-20.129-11.506-26.903l-0.014-0.013c-6.991-6.763-16.529-10.93-27.040-10.93-0.274 0-0.547 0.003-0.819 0.008l0.041-0.001h-135.723c-0.151-0.002-0.33-0.003-0.509-0.003-10.596 0-20.22 4.162-27.326 10.941l0.016-0.015c-7.062 6.85-11.462 16.41-11.52 26.997v0.011c0 0.027 0 0.059 0 0.091 0 10.58 4.416 20.129 11.506 26.903l0.014 0.013c3.578 3.446 7.831 6.22 12.538 8.1l0.262 0.092zM562.944 483.2c4.29 1.73 9.265 2.734 14.474 2.734 0.177 0 0.353-0.001 0.529-0.003h135.738c0.129 0.002 0.281 0.002 0.433 0.002 10.606 0 20.241-4.161 27.36-10.94l-0.016 0.015c7.070-6.849 11.483-16.406 11.563-26.993v-0.015c0-0.027 0-0.059 0-0.091 0-10.58-4.416-20.129-11.506-26.903l-0.014-0.013c-6.997-6.763-16.541-10.93-27.057-10.93-0.268 0-0.535 0.003-0.801 0.008l0.040-0.001h-135.723c-0.156-0.002-0.341-0.003-0.525-0.003-10.591 0-20.209 4.162-27.309 10.941l0.015-0.015c-7.062 6.85-11.462 16.41-11.52 26.997v0.011c0 0.027 0 0.059 0 0.091 0 10.58 4.416 20.129 11.506 26.903l0.014 0.013c3.579 3.444 7.832 6.217 12.537 8.099l0.263 0.093zM562.944 312.533c4.29 1.73 9.265 2.734 14.474 2.734 0.177 0 0.353-0.001 0.529-0.003h135.738c0.129 0.002 0.281 0.002 0.433 0.002 10.606 0 20.241-4.161 27.36-10.94l-0.016 0.015c7.070-6.849 11.483-16.406 11.563-26.993v-0.015c0-0.027 0-0.059 0-0.091 0-10.58-4.416-20.129-11.506-26.903l-0.014-0.013c-6.997-6.763-16.541-10.93-27.057-10.93-0.268 0-0.535 0.003-0.801 0.008l0.040-0.001h-135.723c-0.156-0.002-0.341-0.003-0.525-0.003-10.591 0-20.209 4.162-27.309 10.941l0.015-0.015c-7.062 6.85-11.462 16.41-11.52 26.997v0.011c0 0.027 0 0.059 0 0.091 0 10.58 4.416 20.129 11.506 26.903l0.014 0.013c3.579 3.444 7.832 6.217 12.537 8.099l0.263 0.093z" />
<glyph unicode="&#xe923;" glyph-name="Attachments" d="M647.765 641.92v-403.371c0-64.768-43.819-123.733-107.264-136.704-8.503-1.891-18.269-2.975-28.288-2.975-75.035 0-135.875 60.776-135.979 135.786v480.437c0 38.656 26.325 74.581 64.427 80.896 3.938 0.708 8.471 1.113 13.099 1.113 42.873 0 77.631-34.744 77.653-77.612v-407.255c0-10.722-8.692-19.413-19.413-19.413s-19.413 8.692-19.413 19.413v0 329.685c-0.999 20.646-17.981 37.007-38.784 37.007s-37.785-16.361-38.781-36.918l-0.003-0.089v-324.011c0-50.731 36.437-97.024 86.912-102.144 57.984-5.888 107.051 39.68 107.051 96.427v400.469c0 80.981-59.093 153.429-139.691 161.28-4.593 0.482-9.923 0.757-15.317 0.757-85.74 0-155.252-69.478-155.307-155.205v-475.312c0-111.36 81.195-210.987 192-221.824 6.32-0.664 13.655-1.043 21.077-1.043 117.879 0 213.454 95.492 213.589 213.339v407.266c-0.999 20.646-17.981 37.007-38.784 37.007s-37.785-16.361-38.781-36.918l-0.003-0.089z" />
<glyph unicode="&#xe924;" glyph-name="comments" d="M512 874.667c-235.264 0-426.667-167.168-426.667-372.565 0-217.685 215.040-393.557 469.333-370.603v-84.736c0.853 0.299 0-41.387 42.667-18.645l23.040 14.336c48.299 30.037 290.432 191.573 315.861 420.139 1.579 13.013 2.432 26.197 2.432 39.509 0 205.397-191.403 372.565-426.667 372.565zM362.667 460.715h-42.667c-0.090-0.001-0.195-0.002-0.301-0.002-11.498 0-20.841 9.225-21.032 20.678v41.405c0 11.435 9.557 20.736 21.333 20.736h42.667c11.776 0 21.333-9.301 21.333-20.736v-41.387c-0.191-11.47-9.534-20.695-21.032-20.695-0.106 0-0.212 0.001-0.317 0.002h0.016zM533.333 460.715h-42.667c-0.090-0.001-0.195-0.002-0.301-0.002-11.498 0-20.841 9.225-21.032 20.678v41.405c0 11.435 9.557 20.736 21.333 20.736h42.667c11.776 0 21.333-9.301 21.333-20.736v-41.387c-0.191-11.47-9.534-20.695-21.032-20.695-0.106 0-0.212 0.001-0.317 0.002h0.016zM704 460.715h-42.667c-0.090-0.001-0.195-0.002-0.301-0.002-11.498 0-20.841 9.225-21.032 20.678v41.405c0 11.435 9.557 20.736 21.333 20.736h42.667c11.776 0 21.333-9.301 21.333-20.736v-41.387c-0.191-11.47-9.534-20.695-21.032-20.695-0.106 0-0.212 0.001-0.317 0.002h0.016z" />
<glyph unicode="&#xe925;" glyph-name="datatable" d="M511.445 874.667h-0.004c0.029 0 0.058 0 0.086 0 2.235 0 4.418-0.217 6.318-0.597h259.243c41.387 0 75.733-38.613 75.733-85.205v-206.293l-0.033 0.264c0.357-2.354 0.543-4.765 0.543-7.219s-0.185-4.865-0.51-6.955v-241.749l-0.033 0.264c0.357-2.354 0.543-4.765 0.543-7.219s-0.185-4.865-0.51-6.955v-205.867c0-46.592-34.347-85.248-75.733-85.248l-258.86 0.034c-2.072-0.398-4.211-0.606-6.398-0.606s-4.327 0.208-6.187 0.572h-258.731c-41.387 0-75.733 38.656-75.733 85.248v206.293l0.033-0.265c-0.356 2.355-0.54 4.765-0.54 7.219s0.184 4.865 0.507 6.955v241.749l0.033-0.265c-0.356 2.355-0.541 4.765-0.541 7.219s0.185 4.865 0.508 6.955v205.867c0 46.592 34.347 85.205 75.733 85.205l258.815-0.035c1.827 0.363 3.708 0.578 5.676 0.633zM246.912 788.907v-170.496h227.2v170.453h-227.2zM777.088 788.864h-227.2v-170.453h227.2v170.496zM246.912 533.205v-170.453h227.2v170.453h-227.2zM777.088 533.205h-227.2v-170.453h227.2v170.453zM246.912 277.547v-170.411h227.2v170.411h-227.2zM777.088 277.547h-227.2v-170.411h227.2v170.411z" />
<glyph unicode="&#xe926;" glyph-name="tags" d="M515.84 848.341l-404.181-404.181c-16.254-16.253-26.307-38.707-26.307-63.509s10.053-47.256 26.307-63.509l269.44-269.44c16.253-16.254 38.707-26.307 63.509-26.307s47.256 10.053 63.509 26.307l404.224 404.181c16.853 16.853 26.325 39.68 26.325 63.531v269.44c0 49.603-40.211 89.813-89.813 89.813v0h-269.483c-23.808 0-46.677-9.472-63.531-26.325zM781.483 650.112c-0.505-0.014-1.1-0.021-1.696-0.021-37.231 0-67.413 30.182-67.413 67.413s30.182 67.413 67.413 67.413c0.596 0 1.191-0.008 1.783-0.023l-0.087 0.002c37.231 0 67.413-30.182 67.413-67.413s-30.182-67.413-67.413-67.413v0z" />
<glyph unicode="&#xe927;" glyph-name="analytics" d="M899.84 789.333h-775.68c-0.179 0.003-0.39 0.005-0.602 0.005-20.905 0-37.891-16.78-38.224-37.605v-0.031c0-20.779 17.365-37.675 38.827-37.675v-456.747c0-41.6 34.688-75.264 77.525-75.264h271.531v-37.675c0-20.779 17.365-37.632 38.784-37.632s38.827 16.853 38.827 37.632v37.675h271.488c42.837 0 77.568 33.707 77.568 75.264v456.747c21.419 0 38.784 16.896 38.784 37.675-0.334 20.857-17.32 37.637-38.225 37.637-0.212 0-0.423-0.002-0.634-0.005h0.032zM691.84 449.152l-71.253 69.12-126.891-123.179c-7.317-7.032-17.276-11.362-28.245-11.362s-20.928 4.33-28.259 11.375l0.014-0.013-49.323 47.872-71.253-69.12c-7.111-6.804-16.773-10.992-27.413-10.992s-20.303 4.188-27.428 11.006l0.015-0.014c-6.999 6.727-11.348 16.168-11.348 26.624s4.348 19.897 11.335 26.612l0.012 0.012 97.835 94.933c7.317 7.032 17.276 11.362 28.245 11.362s20.928-4.33 28.259-11.375l-0.014 0.013 49.323-47.872 126.933 123.179c7.315 7.019 17.265 11.341 28.224 11.341s20.909-4.322 28.238-11.355l-0.014 0.013 97.835-94.933c6.999-6.727 11.348-16.168 11.348-26.624s-4.348-19.897-11.335-26.612l-0.012-0.012c-7.111-6.804-16.773-10.992-27.413-10.992s-20.303 4.188-27.428 11.006l0.015-0.014z" />
<glyph unicode="&#xe928;" glyph-name="Shape" d="M490.505 951.1c5.939 5.939 13.705 8.9 21.5 8.9s15.66-2.961 21.6-8.9l143.899-143.899c19.148-19.2 5.536-52-21.6-52h-92.699v-153.598c0.261-18.464-9.44-35.639-25.388-44.948s-35.674-9.308-51.622 0c-15.948 9.308-25.649 26.483-25.388 44.948v153.598h-92.698c-27.136 0-40.7 32.8-21.501 52l143.899 143.899zM152.807 613.504c4.8 4.787 10.528 7.503 16.3 8.499 17.316 2.991 35.699-9.748 35.699-30.1v-92.699h153.599c18.464 0.261 35.639-9.44 44.948-25.388s9.308-35.674 0-51.622c-9.309-15.949-26.483-25.65-44.948-25.389h-153.599v-92.698c0-27.136-32.8-40.7-52-21.501l-143.899 143.899c-11.878 11.878-11.878 31.221 0 43.099l143.899 143.899zM854.903 622.003c-17.319 2.991-35.703-9.748-35.703-30.1v-92.699h-153.598c-18.464 0.261-35.639-9.44-44.948-25.388s-9.308-35.674 0-51.622c9.308-15.949 26.483-25.65 44.948-25.389h153.598v-92.698c0-27.136 32.8-40.7 52.002-21.501l143.898 143.899c11.878 11.878 11.878 31.221 0 43.099l-143.898 143.899c-4.804 4.787-10.53 7.503-16.299 8.499zM460.805 294.408c-0.387 28.238 22.163 51.458 50.4 51.899 13.839 0.217 27.176-5.179 36.972-14.956s15.217-23.104 15.027-36.943v-153.599h92.699c27.136 0 40.748-32.8 21.6-52.002l-143.899-143.898c-11.878-11.878-31.221-11.878-43.099 0l-143.899 143.898c-19.199 19.203-5.635 52.002 21.501 52.002h92.698v153.599z" />
<glyph unicode="&#xe929;" glyph-name="Subtract" d="M378.466 918.6c4.934 24.064 26.89 41.4 52.576 41.4h161.917c25.685 0 47.642-17.336 52.576-41.4l17.909-87.8c43.992-15.884 84.719-38.009 120.442-66l88.188 29c24.286 7.936 51.063-1.652 63.881-22.9l80.853-133.799c12.817-21.248 8.158-48.224-11.204-64.3l-70.69-58.7c3.669-21.573 6.067-43.535 6.067-66.1s-2.398-44.527-6.067-66.1l70.69-58.7c19.362-16.077 24.021-42.952 11.204-64.2l-80.853-133.901c-12.868-21.249-39.595-30.789-63.881-22.802l-88.188 29.002c-35.735-28.012-76.431-50.208-120.442-66.097l-17.909-87.799c-4.934-24.064-26.89-41.404-52.576-41.404h-161.917c-25.685 0-47.642 17.34-52.576 41.404l-17.909 87.799c-43.992 15.881-84.719 38.007-120.442 65.997l-88.184-28.996c-24.291-7.936-51.071 1.647-63.887 22.896l-80.854 133.8c-12.816 21.248-8.152 48.224 11.206 64.3l70.694 58.7c-3.677 21.573-6.075 43.535-6.075 66.1s2.398 44.527 6.075 66.1l-70.694 58.7c-19.358 16.077-24.022 43.052-11.206 64.3l80.854 133.799c12.869 21.197 39.596 30.787 63.887 22.8l88.184-29c35.735 28.009 76.431 50.209 120.442 66.1l17.909 87.8zM716.8 448c0 113.101-91.699 204.8-204.8 204.8s-204.8-91.699-204.8-204.8c0-113.101 91.699-204.8 204.8-204.8s204.8 91.699 204.8 204.8z" />
<glyph unicode="&#xe92a;" glyph-name="Delete-1" horiz-adv-x="768" d="M288 960l-48-51.2h-192c-26.496 0-48-22.938-48-51.2s21.504-51.2 48-51.2h672c26.496 0 48 22.938 48 51.2s-21.504 51.2-48 51.2h-192l-48 51.2h-192zM47.998 704v-665.6c0-56.576 42.96-102.4 96-102.4h480c53.040 0 96 45.824 96 102.4v665.6h-672z" />
<glyph unicode="&#xe93c;" glyph-name="edit" d="M811.605 874.667c-32.512 0-65.024-12.373-89.856-37.205l-52.651-52.651 179.712-179.712 52.651 52.651c22.928 22.995 37.105 54.728 37.105 89.771 0 70.156-56.82 127.041-126.951 127.147h-0.010zM601.685 717.44l-426.752-426.88s45.141-0.213 67.413-22.443c22.187-22.272 21.76-66.731 21.76-66.731s45.781-0.853 68.096-23.125c22.272-22.315 22.443-67.413 22.443-67.413l426.795 426.88-179.712 179.712zM115.2 200.747l-29.483-157.44c-0.204-1.033-0.321-2.221-0.321-3.435 0-10.25 8.31-18.56 18.56-18.56 1.215 0 2.402 0.117 3.552 0.34l-0.117-0.019 157.44 29.483-149.632 149.632z" />
<glyph unicode="&#xe95d;" glyph-name="share" d="M299.694 139.566c0 39.067-15.164 74.282-39.583 101.012l213.59 366.265c11.566-2.827 23.646-4.627 35.983-4.627s24.417 1.8 35.983 4.627l211.535-362.41c-25.704-27.501-41.639-64.258-41.639-104.867 0-85.077 69.14-154.217 154.217-154.217s154.217 69.14 154.217 154.217c0 85.077-69.14 154.217-154.217 154.217-12.337 0-24.417-1.8-35.983-4.627l-211.533 362.41c25.704 27.501 41.639 64.258 41.639 104.867 0 85.077-69.14 154.217-154.217 154.217s-154.217-69.14-154.217-154.217c0-40.61 15.935-77.366 41.639-104.867l-213.59-366.265c-10.795 2.571-22.104 4.113-33.67 4.113-82.764 0-149.848-67.084-149.848-149.848s67.084-149.848 149.848-149.848 149.846 67.084 149.846 149.848z" />
</font>
</defs>
</svg>
